<?xml version="1.0" encoding="utf-8"?>
<!-- Generator: Adobe Illustrator 23.1.0, SVG Export Plug-In . SVG Version: 6.00 Build 0)  -->
<svg version="1.1" id="Слой_3" xmlns="http://www.w3.org/2000/svg" xmlns:xlink="http://www.w3.org/1999/xlink" x="0px" y="0px"
	 viewBox="0 0 1265 850.4" style="enable-background:new 0 0 1265 850.4;" xml:space="preserve">
<style type="text/css">
	.st0{fill:url(#SVGID_1_);}
	.st1{fill:#F2EEC1;}
	.st2{fill:#C3D2E9;}
	.st3{fill:#BAC8DE;}
	.st4{fill:#F0DBCA;}
	.st5{fill:#F7E1CF;}
	.st6{fill:#E3CFBF;}
	.st7{fill:#B9A8A8;}
	.st8{fill:#CBBFBA;}
	.st9{fill:#AFADC5;}
	.st10{fill:#B1BFD3;}
	.st11{fill:#A4A2B9;}
	.st12{fill:#C72258;}
	.st13{fill:#B41F50;}
	.st14{fill:#D4E7FB;}
	.st15{fill:#9797AC;}
	.st16{fill:#CBDDF1;}
	.st17{fill:#AFAFC7;}
	.st18{fill:#B7C7D9;}
	.st19{fill:#ABBACB;}
	.st20{fill:#F6F6EE;}
	.st21{fill:#DED1CB;}
	.st22{fill:#E5E5E5;}
	.st23{fill:#B7C8D9;}
	.st24{fill:#9F9FB4;}
	.st25{fill:#CFE2F5;}
	.st26{fill:#CFCCA5;}
	.st27{fill:#B58B56;}
	.st28{fill:#977448;}
	.st29{fill:#CDD673;}
	.st30{fill:#A5AC5C;}
	.st31{fill:#9A6C30;}
	.st32{fill:#F6D487;}
	.st33{fill:#D1CEA6;}
	.st34{fill:url(#SVGID_2_);}
	.st35{fill:url(#SVGID_3_);}
	.st36{fill:url(#SVGID_4_);}
	.st37{fill:url(#SVGID_5_);}
	.st38{fill:url(#SVGID_6_);}
	.st39{fill:url(#SVGID_7_);}
	.st40{fill:#9B7B64;}
	.st41{fill:#C3A992;}
	.st42{fill:#FAF3D9;}
	.st43{fill:#CFB084;}
	.st44{fill:#DECBAA;}
	.st45{fill:#B1BE62;}
	.st46{fill:#EDD9B6;}
	.st47{fill:#BFA27A;}
	.st48{fill:#FFFFFF;}
</style>
<g>
	<g>
		<g>
			
				<radialGradient id="SVGID_1_" cx="171.9972" cy="5604.2041" r="1226.6437" gradientTransform="matrix(1 0 0 0.6068 0 -3053.5913)" gradientUnits="userSpaceOnUse">
				<stop  offset="0" style="stop-color:#DAF6DF"/>
				<stop  offset="8.919561e-02" style="stop-color:#D2F3E2"/>
				<stop  offset="0.699" style="stop-color:#A0E2F6"/>
				<stop  offset="1" style="stop-color:#8DDBFE"/>
			</radialGradient>
			<rect class="st0" width="1265" height="850.4"/>
			<rect x="0" y="550.2" class="st1" width="1265" height="300.2"/>
			<path class="st2" d="M753.9,320.5l-24,11v-60.5h-48.3l-29.2,13.3v72.8h-17.8l-72.6,41V257.2l-32.1-14.7h-53.2v161.6h-20.9v-31
				h-39.5l-50.2,28.4v-62.8l-32.7-8.7v-10.5H322h-2.1v-10.5c0,0-11,0-11,0h-6v-60.8c1-0.6,1.7-1.7,1.7-2.9c0-1.9-1.5-3.4-3.4-3.4
				c-0.2,0-0.4,0-0.6,0.1c-1.6,0.3-2.8,1.7-2.8,3.3c0,1.3,0.7,2.3,1.7,2.9v60.8H286v9.4v1.2h-13.5v9.4v1.2h-18.2v221.5l539.4,0v-231
				H753.9z"/>
			<path class="st3" d="M1144,370.1l-18.9,8.6v-47.5h-37.9l-22.9,10.5v57.2h-14l-57,32.2V320.4l-25.2-11.5h-41.8v126.9h-16.4v-24.4
				h-31l-39.4,22.3v-49.3l-25.6-6.8v-8.3h-9h-1.6V361c0,0-8.6,0-8.6,0h-4.7v-47.8c0.8-0.5,1.3-1.3,1.3-2.3c0-1.5-1.2-2.7-2.7-2.7
				c-0.2,0-0.3,0-0.5,0c-1.2,0.2-2.2,1.3-2.2,2.6c0,1,0.5,1.8,1.3,2.3V361h-10.6v7.4v0.9h-10.6v7.4v0.9h-14.3v173.9l423.6,0V370.1
				H1144z"/>
			<rect x="874.6" y="409.3" class="st4" width="72.1" height="144.4"/>
			<rect x="869" y="405.2" class="st5" width="83.4" height="4.1"/>
			<rect x="874.6" y="409.3" class="st6" width="36.1" height="1.6"/>
			<rect x="910.7" y="409.3" class="st7" width="36.1" height="1.6"/>
			<rect x="910.7" y="405.2" class="st6" width="41.7" height="4.1"/>
			<rect x="874.6" y="421.5" class="st8" width="72.1" height="7.4"/>
			<rect x="910.7" y="421.5" class="st7" width="36.1" height="7.4"/>
			<rect x="874.6" y="431" class="st8" width="72.1" height="7.4"/>
			<rect x="910.7" y="431" class="st7" width="36.1" height="7.4"/>
			<rect x="874.6" y="440.5" class="st8" width="72.1" height="7.4"/>
			<rect x="910.7" y="440.5" class="st7" width="36.1" height="7.4"/>
			<rect x="874.6" y="450" class="st8" width="72.1" height="7.4"/>
			<rect x="910.7" y="450" class="st7" width="36.1" height="7.4"/>
			<rect x="874.6" y="459.5" class="st8" width="72.1" height="7.4"/>
			<rect x="910.7" y="459.5" class="st7" width="36.1" height="7.4"/>
			<rect x="874.6" y="469" class="st8" width="72.1" height="7.4"/>
			<rect x="910.7" y="469" class="st7" width="36.1" height="7.4"/>
			<rect x="874.6" y="478.5" class="st8" width="72.1" height="7.4"/>
			<rect x="910.7" y="478.5" class="st7" width="36.1" height="7.4"/>
			<rect x="874.6" y="488" class="st8" width="72.1" height="7.4"/>
			<rect x="910.7" y="488" class="st7" width="36.1" height="7.4"/>
			<rect x="874.6" y="497.4" class="st8" width="72.1" height="7.4"/>
			<rect x="910.7" y="497.4" class="st7" width="36.1" height="7.4"/>
			<rect x="874.6" y="506.9" class="st8" width="72.1" height="7.4"/>
			<rect x="910.7" y="506.9" class="st7" width="36.1" height="7.4"/>
			<rect x="874.6" y="516.4" class="st8" width="72.1" height="7.4"/>
			<rect x="910.7" y="516.4" class="st7" width="36.1" height="7.4"/>
			<rect x="874.6" y="525.9" class="st8" width="72.1" height="7.4"/>
			<rect x="910.7" y="525.9" class="st7" width="36.1" height="7.4"/>
			<rect x="874.6" y="535.4" class="st8" width="72.1" height="7.4"/>
			<rect x="910.7" y="535.4" class="st7" width="36.1" height="7.4"/>
			<rect x="874.6" y="544.9" class="st8" width="72.1" height="7.4"/>
			<rect x="910.7" y="544.9" class="st7" width="36.1" height="7.4"/>
			<polygon class="st2" points="262.3,318 262.3,550.2 124.2,550.2 124.2,367 210.9,318 			"/>
			<rect x="210.9" y="318" class="st9" width="51.4" height="232.2"/>
			<polygon class="st10" points="262.3,333.8 262.3,342.3 210.9,342.3 124.2,391.3 124.2,382.7 210.9,333.8 			"/>
			<rect x="210.9" y="333.8" class="st11" width="51.4" height="8.5"/>
			<polygon class="st10" points="262.3,348.5 262.3,357 210.9,357 124.2,406 124.2,397.5 210.9,348.5 			"/>
			<rect x="210.9" y="348.5" class="st11" width="51.4" height="8.5"/>
			<polygon class="st10" points="262.3,363.2 262.3,371.8 210.9,371.8 124.2,420.7 124.2,412.2 210.9,363.2 			"/>
			<rect x="210.9" y="363.2" class="st11" width="51.4" height="8.5"/>
			<polygon class="st10" points="262.3,377.9 262.3,386.5 210.9,386.5 124.2,435.5 124.2,426.9 210.9,377.9 			"/>
			<rect x="210.9" y="377.9" class="st11" width="51.4" height="8.5"/>
			<polygon class="st10" points="262.3,392.7 262.3,401.2 210.9,401.2 124.2,450.2 124.2,441.6 210.9,392.7 			"/>
			<rect x="210.9" y="392.7" class="st11" width="51.4" height="8.5"/>
			<polygon class="st10" points="262.3,407.4 262.3,415.9 210.9,415.9 124.2,464.9 124.2,456.4 210.9,407.4 			"/>
			<rect x="210.9" y="407.4" class="st11" width="51.4" height="8.5"/>
			<polygon class="st10" points="262.3,422.1 262.3,430.7 210.9,430.7 124.2,479.6 124.2,471.1 210.9,422.1 			"/>
			<rect x="210.9" y="422.1" class="st11" width="51.4" height="8.5"/>
			<polygon class="st10" points="262.3,436.8 262.3,445.4 210.9,445.4 124.2,494.4 124.2,485.8 210.9,436.8 			"/>
			<rect x="210.9" y="436.8" class="st11" width="51.4" height="8.5"/>
			<polygon class="st10" points="262.3,451.6 262.3,460.1 210.9,460.1 124.2,509.1 124.2,500.5 210.9,451.6 			"/>
			<rect x="210.9" y="451.6" class="st11" width="51.4" height="8.5"/>
			<polygon class="st10" points="262.3,466.3 262.3,474.8 210.9,474.8 124.2,523.8 124.2,515.3 210.9,466.3 			"/>
			<rect x="210.9" y="466.3" class="st11" width="51.4" height="8.5"/>
			<polygon class="st10" points="262.3,481 262.3,489.6 210.9,489.6 124.2,538.5 124.2,530 210.9,481 			"/>
			<rect x="210.9" y="481" class="st11" width="51.4" height="8.5"/>
			<polygon class="st10" points="262.3,495.7 262.3,504.3 210.9,504.3 129.7,550.2 124.2,550.2 124.2,544.7 210.9,495.7 			"/>
			<rect x="210.9" y="495.7" class="st11" width="51.4" height="8.5"/>
			<polygon class="st10" points="262.3,510.5 262.3,519 210.9,519 155.8,550.2 140.7,550.2 210.9,510.5 			"/>
			<rect x="210.9" y="510.5" class="st11" width="51.4" height="8.5"/>
			<polygon class="st10" points="262.3,525.2 262.3,533.7 210.9,533.7 181.9,550.2 166.7,550.2 210.9,525.2 			"/>
			<rect x="210.9" y="525.2" class="st11" width="51.4" height="8.5"/>
			<rect x="40.7" y="258.5" class="st12" width="4.9" height="5"/>
			<rect x="43.1" y="258.5" class="st13" width="2.4" height="5"/>
			<rect x="0" y="261.9" class="st14" width="145.5" height="288.3"/>
			<rect x="111.3" y="261.9" class="st9" width="34.3" height="288.3"/>
			<rect x="113.9" y="266" class="st15" width="28.9" height="281.4"/>
			<rect x="23.7" y="248.2" class="st14" width="79.3" height="13.7"/>
			<rect x="88.2" y="248.2" class="st9" width="14.9" height="13.7"/>
			<rect x="41.3" y="234.5" class="st14" width="44.1" height="13.7"/>
			<rect x="59" y="154.5" class="st14" width="4.4" height="80"/>
			<rect x="61.2" y="154.5" class="st9" width="2.2" height="80"/>
			<rect x="71.2" y="234.5" class="st9" width="14.2" height="13.7"/>
			<rect x="23.7" y="260.4" class="st16" width="64.4" height="1.5"/>
			<rect x="41.3" y="246.7" class="st16" width="29.9" height="1.5"/>
			<rect x="4.3" y="266" class="st17" width="23.6" height="278.7"/>
			<rect x="8.1" y="269.4" class="st2" width="19.8" height="275.4"/>
			<rect x="44.1" y="266" class="st17" width="23.6" height="278.7"/>
			<rect x="47.9" y="269.4" class="st2" width="19.8" height="275.4"/>
			<rect x="84" y="266" class="st17" width="23.6" height="278.7"/>
			<rect x="87.8" y="269.4" class="st2" width="19.8" height="275.4"/>
			<path class="st13" d="M65.6,151.5c0,2.4-2,4.4-4.4,4.4c-0.3,0-0.5,0-0.8-0.1c-2-0.4-3.6-2.2-3.6-4.3c0-2.2,1.5-3.9,3.6-4.3
				c0.3,0,0.5-0.1,0.8-0.1C63.6,147.1,65.6,149.1,65.6,151.5z"/>
			<path class="st12" d="M64,151.5c0,2.2-1.5,3.9-3.6,4.3c-2-0.4-3.6-2.2-3.6-4.3c0-2.2,1.5-3.9,3.6-4.3
				C62.4,147.6,64,149.4,64,151.5z"/>
			<rect x="989.2" y="336.6" class="st14" width="56.2" height="214.8"/>
			<rect x="1032.2" y="336.6" class="st18" width="13.2" height="214.8"/>
			<rect x="999.8" y="326.4" class="st14" width="29.4" height="10.2"/>
			<rect x="1023.7" y="326.4" class="st18" width="5.5" height="10.2"/>
			<rect x="1006.3" y="316.2" class="st14" width="16.3" height="10.2"/>
			<rect x="1012.8" y="256.6" class="st14" width="3.3" height="59.6"/>
			<rect x="1014.5" y="256.6" class="st18" width="1.6" height="59.6"/>
			<rect x="1017.4" y="316.2" class="st18" width="5.3" height="10.2"/>
			<rect x="999.8" y="335.5" class="st16" width="23.8" height="1.1"/>
			<rect x="1006.3" y="325.3" class="st16" width="11.1" height="1.1"/>
			<rect x="989.2" y="340.8" class="st16" width="56.2" height="6.2"/>
			<rect x="1032.2" y="340.8" class="st19" width="13.2" height="6.2"/>
			<rect x="989.2" y="348.9" class="st16" width="56.2" height="6.2"/>
			<rect x="1032.2" y="348.9" class="st19" width="13.2" height="6.2"/>
			<rect x="989.2" y="357" class="st16" width="56.2" height="6.2"/>
			<rect x="1032.2" y="357" class="st19" width="13.2" height="6.2"/>
			<rect x="989.2" y="365" class="st16" width="56.2" height="6.2"/>
			<rect x="1032.2" y="365" class="st19" width="13.2" height="6.2"/>
			<rect x="989.2" y="373.1" class="st16" width="56.2" height="6.2"/>
			<rect x="1032.2" y="373.1" class="st19" width="13.2" height="6.2"/>
			<rect x="989.2" y="381.2" class="st16" width="56.2" height="6.2"/>
			<rect x="1032.2" y="381.2" class="st19" width="13.2" height="6.2"/>
			<rect x="989.2" y="389.2" class="st16" width="56.2" height="6.2"/>
			<rect x="1032.2" y="389.2" class="st19" width="13.2" height="6.2"/>
			<rect x="989.2" y="397.3" class="st16" width="56.2" height="6.2"/>
			<rect x="1032.2" y="397.3" class="st19" width="13.2" height="6.2"/>
			<rect x="989.2" y="405.4" class="st16" width="56.2" height="6.2"/>
			<rect x="1032.2" y="405.4" class="st19" width="13.2" height="6.2"/>
			<rect x="989.2" y="413.5" class="st16" width="56.2" height="6.2"/>
			<rect x="1032.2" y="413.5" class="st19" width="13.2" height="6.2"/>
			<rect x="989.2" y="421.5" class="st16" width="56.2" height="6.2"/>
			<rect x="1032.2" y="421.5" class="st19" width="13.2" height="6.2"/>
			<rect x="989.2" y="429.6" class="st16" width="56.2" height="6.2"/>
			<rect x="1032.2" y="429.6" class="st19" width="13.2" height="6.2"/>
			<rect x="989.2" y="437.7" class="st16" width="56.2" height="6.2"/>
			<rect x="1032.2" y="437.7" class="st19" width="13.2" height="6.2"/>
			<rect x="989.2" y="445.7" class="st16" width="56.2" height="6.2"/>
			<rect x="1032.2" y="445.7" class="st19" width="13.2" height="6.2"/>
			<rect x="989.2" y="453.8" class="st16" width="56.2" height="6.2"/>
			<rect x="1032.2" y="453.8" class="st19" width="13.2" height="6.2"/>
			<rect x="989.2" y="461.9" class="st16" width="56.2" height="6.2"/>
			<rect x="1032.2" y="461.9" class="st19" width="13.2" height="6.2"/>
			<rect x="989.2" y="470" class="st16" width="56.2" height="6.2"/>
			<rect x="1032.2" y="470" class="st19" width="13.2" height="6.2"/>
			<rect x="989.2" y="478" class="st16" width="56.2" height="6.2"/>
			<rect x="1032.2" y="478" class="st19" width="13.2" height="6.2"/>
			<rect x="989.2" y="486.1" class="st16" width="56.2" height="6.2"/>
			<rect x="1032.2" y="486.1" class="st19" width="13.2" height="6.2"/>
			<rect x="989.2" y="494.2" class="st16" width="56.2" height="6.2"/>
			<rect x="1032.2" y="494.2" class="st19" width="13.2" height="6.2"/>
			<rect x="989.2" y="502.2" class="st16" width="56.2" height="6.2"/>
			<rect x="1032.2" y="502.2" class="st19" width="13.2" height="6.2"/>
			<rect x="989.2" y="510.3" class="st16" width="56.2" height="6.2"/>
			<rect x="1032.2" y="510.3" class="st19" width="13.2" height="6.2"/>
			<rect x="989.2" y="518.4" class="st16" width="56.2" height="6.2"/>
			<rect x="1032.2" y="518.4" class="st19" width="13.2" height="6.2"/>
			<rect x="989.2" y="526.4" class="st16" width="56.2" height="6.2"/>
			<rect x="1032.2" y="526.4" class="st19" width="13.2" height="6.2"/>
			<rect x="989.2" y="534.5" class="st16" width="56.2" height="6.2"/>
			<rect x="1032.2" y="534.5" class="st19" width="13.2" height="6.2"/>
			<rect x="989.2" y="542.6" class="st16" width="56.2" height="6.2"/>
			<rect x="1032.2" y="542.6" class="st19" width="13.2" height="6.2"/>
			<rect x="1116.8" y="281.6" class="st20" width="148.2" height="269.9"/>
			<rect x="1220.8" y="281.6" class="st21" width="44.2" height="269.9"/>
			
				<rect x="1114.3" y="400.7" transform="matrix(-1.836970e-16 1 -1 -1.836970e-16 1663.027 -822.8246)" class="st8" width="257.3" height="38.8"/>
			
				<rect x="1178.2" y="222.6" transform="matrix(-1.836970e-16 1 -1 -1.836970e-16 1459.7852 -922.0802)" class="st20" width="25.4" height="92.6"/>
			
				<rect x="1208.1" y="252.5" transform="matrix(-1.836970e-16 1 -1 -1.836970e-16 1489.6744 -951.9694)" class="st21" width="25.4" height="32.8"/>
			<rect x="1144.6" y="223.6" class="st20" width="2.6" height="32.6"/>
			<rect x="1146" y="223.6" class="st21" width="1.3" height="32.6"/>
			<rect x="1201.8" y="223.6" class="st20" width="2.6" height="32.6"/>
			<path class="st13" d="M1148.9,221.6c0,1.6-1.3,3-3,3c-0.2,0-0.4,0-0.5-0.1c-1.4-0.3-2.4-1.4-2.4-2.9c0-1.4,1-2.6,2.4-2.9
				c0.2,0,0.4-0.1,0.5-0.1C1147.6,218.7,1148.9,220,1148.9,221.6z"/>
			<path class="st12" d="M1147.8,221.6c0,1.4-1,2.6-2.4,2.9c-1.4-0.3-2.4-1.4-2.4-2.9c0-1.4,1-2.6,2.4-2.9
				C1146.8,219,1147.8,220.2,1147.8,221.6z"/>
			<path class="st13" d="M1017.4,254.8c0,1.6-1.3,3-3,3c-0.2,0-0.4,0-0.5-0.1c-1.4-0.3-2.4-1.4-2.4-2.9s1-2.6,2.4-2.9
				c0.2,0,0.4-0.1,0.5-0.1C1016.1,251.9,1017.4,253.2,1017.4,254.8z"/>
			<path class="st12" d="M1016.3,254.8c0,1.4-1,2.6-2.4,2.9c-1.4-0.3-2.4-1.4-2.4-2.9s1-2.6,2.4-2.9
				C1015.3,252.2,1016.3,253.4,1016.3,254.8z"/>
			<rect x="1234.6" y="223.6" class="st21" width="2.6" height="32.6"/>
			<circle class="st13" cx="1235.9" cy="221.6" r="3"/>
			<rect x="1144.6" y="277.6" class="st22" width="59.8" height="4"/>
			<rect x="1204.4" y="277.6" class="st8" width="32.8" height="4"/>
			<rect x="1203.1" y="223.6" class="st21" width="1.3" height="32.6"/>
			<path class="st13" d="M1206.1,221.6c0,1.6-1.3,3-3,3c-0.2,0-0.4,0-0.5-0.1c-1.4-0.3-2.4-1.4-2.4-2.9c0-1.4,1-2.6,2.4-2.9
				c0.2,0,0.4-0.1,0.5-0.1C1204.7,218.7,1206.1,220,1206.1,221.6z"/>
			<path class="st12" d="M1205,221.6c0,1.4-1,2.6-2.4,2.9c-1.4-0.3-2.4-1.4-2.4-2.9c0-1.4,1-2.6,2.4-2.9
				C1203.9,219,1205,220.2,1205,221.6z"/>
			<rect x="1125.6" y="291.4" class="st17" width="19" height="253.4"/>
			<rect x="1128.7" y="294.5" class="st2" width="16" height="250.4"/>
			<rect x="1157.7" y="291.4" class="st17" width="19" height="253.4"/>
			<rect x="1160.7" y="294.5" class="st2" width="16" height="250.4"/>
			<rect x="1189.7" y="291.4" class="st17" width="19" height="253.4"/>
			<rect x="1192.8" y="294.5" class="st2" width="16" height="250.4"/>
			<polygon class="st2" points="1036.3,551.5 1116.8,551.5 1116.8,378.4 1100.9,378.4 1036.3,414.9 			"/>
			<polygon class="st23" points="1063.5,406.5 1063.5,545.4 1042.4,545.4 1042.4,418.5 			"/>
			<polygon class="st23" points="1094.9,388.9 1094.9,545.4 1076.6,545.4 1076.6,399.2 			"/>
			<rect x="1100.9" y="378.4" class="st17" width="15.9" height="173"/>
			<rect x="1103.6" y="384.2" class="st24" width="13.2" height="164.6"/>
			<polygon class="st25" points="1063.5,410 1063.5,545.4 1045.5,545.4 1045.5,420.3 			"/>
			<polygon class="st25" points="1094.9,392.3 1094.9,545.4 1079.6,545.4 1079.6,401 			"/>
			<ellipse class="st26" cx="222.5" cy="648.5" rx="43.2" ry="4.3"/>
			<path class="st27" d="M225.7,609.7l-7.8,9.9l2.8,23.7l0.8,6.6h-12.9l0.8-6.4l1.8-14.9l-7.8-9.9c-0.2-0.2,0.1-0.5,0.3-0.3l8,6.3
				l2.6-22.1c0.1-0.9,1.5-0.9,1.6,0l1.6,13.1l7.9-6.3C225.6,609.2,225.9,609.5,225.7,609.7z"/>
			<path class="st28" d="M225.7,609.7l-7.8,9.9l2.8,23.7c-2,0.4-4.1,0.5-6.2,0.5c-1.7,0-3.4-0.1-5.1-0.4l1.8-14.9l-7.8-9.9
				c-0.2-0.2,0.1-0.5,0.3-0.3l8,6.3l2.6-22.1c0.1-0.9,1.5-0.9,1.6,0l1.6,13.1l7.9-6.3C225.6,609.2,225.9,609.5,225.7,609.7z"/>
			<path class="st29" d="M244.4,607.5c0,12.2-7.4,22.8-17.9,27.4c-3.6,1.6-7.7,2.5-11.9,2.5c-16.5,0-29.8-13.4-29.8-29.8
				c0-7.6,2.9-14.6,7.5-19.8c-1.4-3.1-2.1-6.4-2.1-10c0-6.7,2.7-12.8,7.1-17.2c-0.9-2.2-1.4-4.7-1.4-7.2c0-8.6,5.7-15.8,13.6-18.1
				c1.6-0.5,3.4-0.7,5.2-0.7c10.4,0,18.8,8.4,18.8,18.8c0,2.6-0.5,5-1.4,7.2c4.4,4.4,7.1,10.5,7.1,17.2c0,3.6-0.8,6.9-2.2,10
				C241.5,593,244.4,599.9,244.4,607.5z"/>
			<path class="st30" d="M244.4,607.5c0,12.2-7.4,22.8-17.9,27.4c9.3-50.2-10-87.9-17.1-99.7c1.6-0.5,3.4-0.7,5.2-0.7
				c10.4,0,18.8,8.4,18.8,18.8c0,2.6-0.5,5-1.4,7.2c4.4,4.4,7.1,10.5,7.1,17.2c0,3.6-0.8,6.9-2.2,10
				C241.5,593,244.4,599.9,244.4,607.5z"/>
			<g>
				<path class="st26" d="M1198.2,563.5c0,3.8,29.6,6.8,66.9,7v-14C1227.8,556.7,1198.2,559.8,1198.2,563.5z"/>
				<path class="st27" d="M1264.2,522.1l-13.1-10.3c-0.3-0.3-0.8,0.2-0.5,0.5l11.5,14.6l1.3,1.7l-4.2,34.9h5.8v-48.1L1264.2,522.1z"
					/>
				<path class="st28" d="M1264.2,522.1l-13.1-10.3c-0.3-0.3-0.8,0.2-0.5,0.5l11.5,14.6c1,0.1,1.9,0.1,2.9,0.2v-11.7L1264.2,522.1z"
					/>
				<path class="st30" d="M1190.8,438.5c0,17.4,5.7,33.5,15.4,46.5c13.5,18.2,34.7,30.3,58.9,31.5v-156
					C1223.7,362.6,1190.8,396.7,1190.8,438.5z"/>
				<path class="st29" d="M1190.8,438.5c0,17.4,5.7,33.5,15.4,46.5c13,9.6,29.1,15.4,46.5,15.4c4.2,0,8.3-0.3,12.3-1V360.5
					C1223.7,362.6,1190.8,396.7,1190.8,438.5z"/>
			</g>
			<g>
				<path class="st26" d="M1083.6,561.2c0,3.9-31.7,7-70.8,7c-39.1,0-70.8-3.1-70.8-7c0-3.9,31.7-7,70.8-7
					C1051.9,554.2,1083.6,557.3,1083.6,561.2z"/>
				<path class="st27" d="M1031.2,495.3l-12.8,16.2l1.6,13.1l4.4,36.6h-21.1l4.2-34.9l-1.3-1.7L994.5,510c-0.3-0.3,0.2-0.8,0.5-0.5
					l13.1,10.3l4.3-36.2c0.2-1.5,2.4-1.5,2.6,0l2.6,21.5l13-10.3C1031,494.5,1031.4,495,1031.2,495.3z"/>
				<path class="st28" d="M1031.2,495.3l-12.8,16.2l1.6,13.1c-2.3,0.2-4.7,0.3-7.1,0.3c-2.3,0-4.5-0.1-6.8-0.3L994.5,510
					c-0.3-0.3,0.2-0.8,0.5-0.5l13.1,10.3l4.3-36.2c0.2-1.5,2.4-1.5,2.6,0l2.6,21.5l13-10.3C1031,494.5,1031.4,495,1031.2,495.3z"/>
				<path class="st30" d="M1090.9,436.2c0,43.1-35,78.1-78.1,78.1c-25.7,0-48.5-12.4-62.8-31.6c-9.6-13-15.4-29.1-15.4-46.5
					c0-43.1,35-78.1,78.1-78.1c17.4,0,33.5,5.7,46.5,15.4C1078.5,387.7,1090.9,410.5,1090.9,436.2z"/>
				<path class="st29" d="M1074.7,419.9c0,43.1-35,78.1-78.1,78.1c-17.4,0-33.5-5.7-46.5-15.4c-9.6-13-15.4-29.1-15.4-46.5
					c0-43.1,35-78.1,78.1-78.1c17.4,0,33.5,5.7,46.5,15.4C1069,386.4,1074.7,402.5,1074.7,419.9z"/>
			</g>
			<g>
				<path class="st26" d="M1204.7,675.5c-36.6,0-66.3,2.9-66.3,6.6s29.7,6.6,66.3,6.6c26.8,0,49.9-1.6,60.4-3.9v-5.4
					C1254.6,677.1,1231.5,675.5,1204.7,675.5z"/>
				<path class="st27" d="M1209.6,622.5l-12,15.2l4.3,36.4l1.2,10.1h-19.8l1.2-9.8l2.7-22.9l-12-15.3c-0.2-0.3,0.2-0.7,0.5-0.5
					l12.3,9.7l4-33.9c0.2-1.4,2.3-1.4,2.4,0l2.4,20.1l12.2-9.6C1209.4,621.8,1209.8,622.2,1209.6,622.5z"/>
				<path class="st28" d="M1209.6,622.5l-12,15.2l4.3,36.4c-3.1,0.5-6.3,0.8-9.6,0.8c-2.7,0-5.3-0.2-7.9-0.6l2.7-22.9l-12-15.3
					c-0.2-0.3,0.2-0.7,0.5-0.5l12.3,9.7l4-33.9c0.2-1.4,2.3-1.4,2.4,0l2.4,20.1l12.2-9.6C1209.4,621.8,1209.8,622.2,1209.6,622.5z"
					/>
				<path class="st29" d="M1238.3,619.2c0,18.8-11.3,35-27.5,42c-5.6,2.5-11.8,3.8-18.3,3.8c-25.3,0-45.8-20.5-45.8-45.8
					c0-11.7,4.4-22.4,11.6-30.5c-2.1-4.7-3.3-9.9-3.3-15.4c0-10.3,4.2-19.6,10.9-26.4c-1.4-3.4-2.2-7.2-2.2-11.1
					c0-13.2,8.8-24.3,20.9-27.7c2.5-0.8,5.2-1.1,8-1.1c16,0,28.9,12.9,28.9,28.9c0,3.9-0.8,7.7-2.2,11.1
					c6.7,6.8,10.9,16.1,10.9,26.4c0,5.5-1.2,10.7-3.3,15.4C1233.9,596.8,1238.3,607.5,1238.3,619.2z"/>
				<path class="st30" d="M1238.3,619.2c0,18.8-11.3,35-27.5,42c14.3-77.1-15.4-135.1-26.3-153.1c2.5-0.8,5.2-1.1,8-1.1
					c16,0,28.9,12.9,28.9,28.9c0,3.9-0.8,7.7-2.2,11.1c6.7,6.8,10.9,16.1,10.9,26.4c0,5.5-1.2,10.7-3.3,15.4
					C1233.9,596.8,1238.3,607.5,1238.3,619.2z"/>
			</g>
			<g>
				<ellipse class="st26" cx="776.4" cy="557.3" rx="66.3" ry="6.6"/>
				<path class="st27" d="M781.4,497.7l-12,15.2l4.3,36.4l1.2,10.1h-19.8l1.2-9.8l2.7-22.9l-12-15.3c-0.2-0.3,0.2-0.7,0.5-0.5
					l12.3,9.7l4-33.9c0.2-1.4,2.3-1.4,2.4,0l2.4,20.1l12.2-9.6C781.2,497,781.6,497.4,781.4,497.7z"/>
				<path class="st28" d="M781.4,497.7l-12,15.2l4.3,36.4c-3.1,0.5-6.3,0.8-9.6,0.8c-2.7,0-5.3-0.2-7.9-0.6l2.7-22.9l-12-15.3
					c-0.2-0.3,0.2-0.7,0.5-0.5l12.3,9.7l4-33.9c0.2-1.4,2.3-1.4,2.4,0l2.4,20.1l12.2-9.6C781.2,497,781.6,497.4,781.4,497.7z"/>
				<path class="st29" d="M810,494.4c0,18.8-11.3,35-27.5,42c-5.6,2.5-11.8,3.8-18.3,3.8c-25.3,0-45.8-20.5-45.8-45.8
					c0-11.7,4.4-22.4,11.6-30.5c-2.1-4.7-3.3-9.9-3.3-15.4c0-10.3,4.2-19.6,10.9-26.4c-1.4-3.4-2.2-7.2-2.2-11.1
					c0-13.2,8.8-24.3,20.9-27.7c2.5-0.8,5.2-1.1,8-1.1c16,0,28.9,12.9,28.9,28.9c0,3.9-0.8,7.7-2.2,11.1
					c6.7,6.8,10.9,16.1,10.9,26.4c0,5.5-1.2,10.7-3.3,15.4C805.7,472.1,810,482.7,810,494.4z"/>
				<path class="st30" d="M810,494.4c0,18.8-11.3,35-27.5,42c14.3-77.1-15.4-135.1-26.3-153.1c2.5-0.8,5.2-1.1,8-1.1
					c16,0,28.9,12.9,28.9,28.9c0,3.9-0.8,7.7-2.2,11.1c6.7,6.8,10.9,16.1,10.9,26.4c0,5.5-1.2,10.7-3.3,15.4
					C805.7,472.1,810,482.7,810,494.4z"/>
			</g>
			<path class="st29" d="M266.5,714.9h-87.1c1.7-9.3,6.7-16.1,12.7-16.1c2.3,0,4.4,1,6.3,2.7c1.9-10.6,7.6-18.3,14.4-18.3
				c5.1,0,9.7,4.4,12.4,11.2c2.5-3.3,5.7-5.2,9-5.2c1,0,2,0.2,3,0.5c2.7-4,6.1-6.5,9.9-6.5c7.3,0,13.4,8.9,14.8,20.8
				C264,706.8,265.7,710.6,266.5,714.9z"/>
			<g>
				<path class="st26" d="M180.3,621.7c0-5.5-56.1-10-125.2-10c-19.8,0-38.4,0.4-55,1v18c16.6,0.7,35.3,1,55,1
					C124.2,631.7,180.3,627.2,180.3,621.7z"/>
				<path class="st27" d="M24,472.6L23.6,625h21.5l-7.2-198.6l35.9-36.6c0.4-0.4-0.1-0.9-0.6-0.6l-35.8,26.2L35.8,369l0-1.2
					l-0.4-12.2l12.8-16.2c0.3-0.3-0.2-0.8-0.5-0.5l-13.1,10.3l-2.6-21.5c-0.2-1.5-2.4-1.5-2.6,0L25,364l-13.1-10.3
					c-0.3-0.3-0.8,0.2-0.5,0.5l11.5,14.6l0.1,0.2l1.2,1.5l-0.2,86L8.4,445.1L0,438.9v9.3l2.6,2.7L24,472.6z"/>
				<path class="st28" d="M8.4,445.1L0,438.9v9.3l2.6,2.7C4.7,449.1,6.6,447.1,8.4,445.1z"/>
				<path class="st30" d="M0,378.6v60.1c7-8,11.3-18.5,11.3-30C11.3,397.1,7,386.6,0,378.6z"/>
				<path class="st29" d="M0,386.3v25.6c1.2-4.1,1.8-8.3,1.8-12.8C1.8,394.7,1.2,390.4,0,386.3z"/>
				<path class="st28" d="M73.2,389.2l-35.8,26.2L35.8,369l-0.5-13.3l12.8-16.2c0.3-0.3-0.2-0.8-0.5-0.5l-13.1,10.3l-2.6-21.5
					c-0.2-1.5-2.4-1.5-2.6,0L25,364l-13.1-10.3c-0.3-0.3-0.8,0.2-0.5,0.5l11.5,14.6l0.1,0.2c2.2,0.2,4.5,0.3,6.7,0.3
					c0,0,4.3,255.8,4.3,255.8h11.1l-7.2-198.6l35.9-36.6C74.1,389.4,73.6,388.9,73.2,389.2z"/>
				<path class="st30" d="M108,280.4c0-25.8-12.4-48.6-31.6-62.9c-13-9.7-29.1-15.4-46.6-15.4c-10.5,0-20.6,2.1-29.7,5.9v144.8
					c9.2,3.8,19.2,5.9,29.7,5.9C72.9,358.6,108,323.6,108,280.4z"/>
				<path class="st29" d="M91.7,264.1c0-17.4-5.7-33.6-15.4-46.6c-13-9.7-29.1-15.4-46.6-15.4c-10.5,0-20.6,2.1-29.7,5.9v133.2
					c4.4,0.8,8.9,1.2,13.5,1.2C56.7,342.4,91.7,307.3,91.7,264.1z"/>
				<path class="st30" d="M143,384.9c0,25.2-20.4,45.6-45.6,45.6c-15,0-28.3-7.3-36.6-18.4c-5.6-7.6-9-17-9-27.1
					c0-25.2,20.4-45.6,45.6-45.6c10.2,0,19.6,3.3,27.1,9C135.8,356.6,143,369.9,143,384.9z"/>
				<path class="st29" d="M133.6,375.4c0,25.2-20.4,45.6-45.6,45.6c-10.2,0-19.6-3.3-27.1-9c-5.6-7.6-9-17-9-27.1
					c0-25.2,20.4-45.6,45.6-45.6c10.2,0,19.6,3.3,27.1,9C130.2,355.9,133.6,365.2,133.6,375.4z"/>
			</g>
			<g>
				<path class="st30" d="M636.7,554.2H493.4c2.7-15.3,11-26.5,20.8-26.5c3.7,0,7.2,1.6,10.3,4.5c3.1-17.5,12.5-30.2,23.7-30.2
					c8.5,0,15.9,7.3,20.4,18.4c4.1-5.4,9.3-8.6,14.9-8.6c1.7,0,3.3,0.3,4.9,0.8c4.4-6.7,10.1-10.7,16.4-10.7c12,0,22,14.7,24.3,34.1
					C632.6,540.8,635.4,547,636.7,554.2z"/>
				<path class="st29" d="M724.1,561.6H580.8c2.7-15.3,11-26.5,20.8-26.5c3.7,0,7.2,1.6,10.3,4.5c3.1-17.5,12.5-30.2,23.7-30.2
					c8.5,0,15.9,7.3,20.4,18.4c4.1-5.4,9.3-8.6,14.9-8.6c1.7,0,3.3,0.3,4.9,0.8c4.4-6.7,10.1-10.7,16.4-10.7c12,0,22,14.7,24.3,34.1
					C719.9,548.2,722.7,554.4,724.1,561.6z"/>
				<path class="st26" d="M548.5,567.8c0,3.4-34.8,6.2-77.8,6.2c-43,0-77.8-2.8-77.8-6.2c0-3.4,34.8-6.2,77.8-6.2
					C513.6,561.6,548.5,564.3,548.5,567.8z"/>
				<path class="st27" d="M482.3,423.6L460,446.4l4.5,123.4h-13.3l0.2-94.7l-13.3-13.5l-18.1-18.5c-0.4-0.4,0.1-0.9,0.5-0.6
					l21.2,15.5l9.7,7.1l0.1-53.5l-0.7-1l-0.1-0.1l-7.2-9.1c-0.2-0.2,0.1-0.5,0.3-0.3l8.2,6.4l2.7-22.5c0.1-1,1.5-1,1.6,0l1.6,13.4
					l8.1-6.4c0.2-0.2,0.5,0.1,0.3,0.3l-7.9,10.1l0.3,7.6l0,0.7l1,28.8l22.2-16.3C482.2,423.1,482.5,423.4,482.3,423.6z"/>
				<path class="st28" d="M441.6,458c-1.1,1.3-2.3,2.5-3.6,3.6l-18.1-18.5c-0.4-0.4,0.1-0.9,0.5-0.6L441.6,458z"/>
				<path class="st30" d="M443.5,435.3c0,15.6-12.7,28.3-28.3,28.3c-9.3,0-17.6-4.5-22.8-11.5c-3.5-4.7-5.6-10.6-5.6-16.9
					c0-15.6,12.7-28.3,28.3-28.3c6.3,0,12.2,2.1,16.9,5.6C439,417.7,443.5,426,443.5,435.3z"/>
				<path class="st29" d="M437.6,429.4c0,15.6-12.7,28.3-28.3,28.3c-6.3,0-12.2-2.1-16.9-5.6c-3.5-4.7-5.6-10.6-5.6-16.9
					c0-15.6,12.7-28.3,28.3-28.3c6.3,0,12.2,2.1,16.9,5.6C435.5,417.2,437.6,423.1,437.6,429.4z"/>
				<path class="st28" d="M481.9,423.2l-22.2,16.3l-1-28.8l-0.3-8.3l7.9-10.1c0.2-0.2-0.1-0.5-0.3-0.3l-8.1,6.4l-1.6-13.4
					c-0.1-1-1.5-1-1.6,0l-2.7,22.5l-8.2-6.4c-0.2-0.2-0.5,0.1-0.3,0.3l7.2,9.1l0.1,0.1c1.4,0.1,2.8,0.2,4.2,0.2c0,0,2.6,159,2.6,159
					h6.9L460,446.4l22.3-22.7C482.5,423.4,482.2,423.1,481.9,423.2z"/>
				<path class="st30" d="M503.6,355.6c0,26.9-21.8,48.6-48.6,48.6c-16,0-30.2-7.7-39.1-19.7c-6-8.1-9.6-18.1-9.6-29
					c0-26.9,21.8-48.6,48.6-48.6c10.9,0,20.9,3.6,29,9.6C495.8,325.4,503.6,339.6,503.6,355.6z"/>
				<path class="st29" d="M493.4,345.5c0,26.9-21.8,48.6-48.6,48.6c-10.8,0-20.9-3.6-29-9.6c-6-8.1-9.6-18.1-9.6-29
					c0-26.9,21.8-48.6,48.6-48.6c10.9,0,20.9,3.6,29,9.6C489.9,324.6,493.4,334.6,493.4,345.5z"/>
				<path class="st30" d="M525.4,420.6c0,15.6-12.7,28.3-28.3,28.3c-9.3,0-17.6-4.5-22.8-11.5c-3.5-4.7-5.6-10.6-5.6-16.9
					c0-15.6,12.7-28.3,28.3-28.3c6.3,0,12.2,2.1,16.9,5.6C520.8,403,525.4,411.2,525.4,420.6z"/>
				<path class="st29" d="M519.5,414.7c0,15.6-12.7,28.3-28.3,28.3c-6.3,0-12.2-2.1-16.9-5.6c-3.5-4.7-5.6-10.6-5.6-16.9
					c0-15.6,12.7-28.3,28.3-28.3c6.3,0,12.2,2.1,16.9,5.6C517.4,402.5,519.5,408.4,519.5,414.7z"/>
			</g>
			<path class="st31" d="M920.6,722.4l0.1-0.3c0,0,0-0.1,0-0.1l-2-0.9c0,0-0.1,0-0.1,0l-0.1,0.3c0,0,0,0.1,0,0.1l2,0.9
				C920.5,722.5,920.6,722.4,920.6,722.4z"/>
			<path class="st31" d="M919.7,723.3l0.1-0.3c0,0,0-0.1,0-0.1l-1.7-0.7c0,0-0.1,0-0.1,0l-0.1,0.3c0,0,0,0.1,0,0.1l1.7,0.7
				C919.6,723.3,919.6,723.3,919.7,723.3z"/>
			<path class="st31" d="M918.8,724.2l0.1-0.3c0,0,0-0.1,0-0.1l-1.4-0.6c0,0-0.1,0-0.1,0l-0.1,0.3c0,0,0,0.1,0,0.1l1.4,0.6
				C918.7,724.3,918.7,724.2,918.8,724.2z"/>
			<path class="st32" d="M921.2,620.3c-7-0.4-8.2-2.2-8.2-2.2c0-0.5,0.5-0.8,1.1-1c-0.1,0-0.9,0.6-0.5,1.1
				C914.1,618.8,917.8,620.1,921.2,620.3z"/>
			<path class="st33" d="M921,574.1H792.6c-0.2,0-0.4-0.2-0.4-0.4v-1.1c0-0.2,0.2-0.4,0.4-0.4H921c0.2,0,0.4,0.2,0.4,0.4v1.1
				C921.4,573.9,921.2,574.1,921,574.1z"/>
			
				<linearGradient id="SVGID_2_" gradientUnits="userSpaceOnUse" x1="798.7516" y1="-16077.9883" x2="915.1172" y2="-16077.9883" gradientTransform="matrix(1 0 0 -1 0 -15532)">
				<stop  offset="0" style="stop-color:#FEC866"/>
				<stop  offset="1" style="stop-color:#E0AE57"/>
			</linearGradient>
			<path class="st34" d="M798.8,572.2l43.8-45.6c8.7-9.1,20.2-9.1,28.8,0l43.8,45.6H798.8z"/>
			<path class="st33" d="M1028.6,575.1H864.3c-0.3,0-0.5-0.2-0.5-0.5v-1.4c0-0.3,0.2-0.5,0.5-0.5h164.3c0.3,0,0.5,0.2,0.5,0.5v1.4
				C1029.1,574.9,1028.9,575.1,1028.6,575.1z"/>
			
				<linearGradient id="SVGID_3_" gradientUnits="userSpaceOnUse" x1="872.176" y1="-16071.1377" x2="1021.1365" y2="-16071.1377" gradientTransform="matrix(1 0 0 -1 0 -15532)">
				<stop  offset="0" style="stop-color:#FEC866"/>
				<stop  offset="1" style="stop-color:#E0AE57"/>
			</linearGradient>
			<path class="st35" d="M872.2,572.7l56-58.4c11.1-11.6,25.8-11.6,36.9,0l56,58.4H872.2z"/>
			<path class="st33" d="M370.7,557.1H260c-0.5,0-0.8-0.4-0.8-0.8c0-0.5,0.4-0.8,0.8-0.8h110.7c0.5,0,0.8,0.4,0.8,0.8
				C371.5,556.7,371.1,557.1,370.7,557.1z"/>
			
				<linearGradient id="SVGID_4_" gradientUnits="userSpaceOnUse" x1="264.801" y1="-16064.6094" x2="366.0532" y2="-16064.6094" gradientTransform="matrix(1 0 0 -1 0 -15532)">
				<stop  offset="0" style="stop-color:#FEC866"/>
				<stop  offset="1" style="stop-color:#E0AE57"/>
			</linearGradient>
			<path class="st36" d="M264.8,555.4l38.1-39.7c7.6-7.9,17.5-7.9,25.1,0l38.1,39.7H264.8z"/>
			
				<linearGradient id="SVGID_5_" gradientUnits="userSpaceOnUse" x1="427.4688" y1="-16111.3008" x2="521.3766" y2="-16111.3008" gradientTransform="matrix(1 0 0 -1 0 -15532)">
				<stop  offset="0" style="stop-color:#FEC866"/>
				<stop  offset="1" style="stop-color:#E1AF57"/>
			</linearGradient>
			<path class="st37" d="M427.5,600.4l35.3-36.8c7-7.3,16.3-7.3,23.3,0l35.3,36.8H427.5z"/>
			<path class="st33" d="M523.4,601.5h-97.9c-0.3,0-0.5-0.2-0.5-0.5c0-0.3,0.2-0.5,0.5-0.5h97.9c0.3,0,0.5,0.2,0.5,0.5
				C523.9,601.3,523.7,601.5,523.4,601.5z"/>
			<path class="st33" d="M880.2,685.3h-72.3c-0.3,0-0.5-0.2-0.5-0.5c0-0.3,0.2-0.5,0.5-0.5h72.3c0.3,0,0.5,0.2,0.5,0.5
				C880.8,685.1,880.5,685.3,880.2,685.3z"/>
			
				<linearGradient id="SVGID_6_" gradientUnits="userSpaceOnUse" x1="811.1092" y1="-16201.3398" x2="877.2314" y2="-16201.3398" gradientTransform="matrix(1 0 0 -1 0 -15532)">
				<stop  offset="0" style="stop-color:#FEC866"/>
				<stop  offset="1" style="stop-color:#E0AE57"/>
			</linearGradient>
			<path class="st38" d="M811.1,684.2l24.9-25.9c4.9-5.1,11.5-5.1,16.4,0l24.9,25.9H811.1z"/>
			<path class="st33" d="M334.9,623.3h-66.6c-0.3,0-0.5-0.2-0.5-0.5c0-0.3,0.2-0.5,0.5-0.5h66.6c0.3,0,0.5,0.2,0.5,0.5
				C335.4,623.1,335.2,623.3,334.9,623.3z"/>
			
				<linearGradient id="SVGID_7_" gradientUnits="userSpaceOnUse" x1="271.2617" y1="-16140.585" x2="332.1602" y2="-16140.585" gradientTransform="matrix(1 0 0 -1 0 -15532)">
				<stop  offset="0" style="stop-color:#FEC866"/>
				<stop  offset="1" style="stop-color:#E0AE57"/>
			</linearGradient>
			<path class="st39" d="M271.3,622.3l22.9-23.9c4.5-4.7,10.6-4.7,15.1,0l22.9,23.9H271.3z"/>
			<path class="st40" d="M902.2,844.1c0,0-5-2.4-5-2.4l-9.5-4.5c0,0-7-3.3-7-3.3c0,0-9.5-4.5-9.5-4.5l-3.3-1.6l-2.9-1.4
				c0,0-9.7-4.6-9.7-4.6c0,0-6.8-3.2-6.8-3.2c0,0-9.8-4.6-9.8-4.6c0,0-8.6-4.1-8.6-4.1l-11.7-5.5l-6.4-3l-10.8-5.1l-0.8-0.4v-25.6
				l31.1-13.3l4.5-1.9l8.3-3.6l24.1-10.4H194.1L0,756.1v94.3h915.5l-3.4-1.6L902.2,844.1z"/>
			<polygon class="st41" points="659.8,748.1 347.5,850.4 538.1,850.4 789.4,748.1 			"/>
			<polygon class="st41" points="430.1,794.5 443.4,790.9 577.6,755.1 603.7,748.1 474.1,748.1 440.4,755.1 285.6,787.1 
				270.1,790.3 0,846.1 0,850.4 220.4,850.4 230.5,847.7 			"/>
			<polygon class="st41" points="416,748.1 383,755.1 237.3,785.9 222.4,789 0,836 0,790.3 85.9,776.1 213.3,755.1 255.6,748.1 			
				"/>
			<g>
				<path class="st42" d="M940.6,842.9c0,0-8.5,3.3-19.1,7.5h21.2c3.5-1.4,6.2-2.6,6.2-2.6L940.6,842.9z"/>
				<path class="st42" d="M902.3,839.6l-8.3-4.9c0,0-2.4,1-6.3,2.5c-7.6,3-20.9,8.3-32.9,13.2h21.8l20.7-8.7
					C897.2,841.7,902.3,839.6,902.3,839.6z"/>
				<path class="st42" d="M769.3,828.9l29.7,21.4h42.3l39.3-16.5c0,0,3.1-1.3,3.1-1.3l-8.3-4.9c0,0-1.6,0.6-4.3,1.7
					c-11.6,4.5-43.4,17-53.2,20.9l-3.6-2.5l50.6-21.4l3.1-1.3l-9.6-4.5c0,0-1.2,0.5-3.2,1.3c-10.5,4.2-43.8,17.3-49.9,19.8l-4.4-3
					l47.5-20.1c0,0,5.2-2.2,5.2-2.2l-9.6-4.5c0,0-2,0.8-5.3,2.1c-11.7,4.6-39,15.4-46.7,18.6l-7-4.8L830,810c0,0,5-2,5-2l-9.7-6.4
					c0,0-2.7,1.1-6.9,2.9c-11.8,4.9-35.2,14.4-43,16.9l-4.4-3l41-16.9c0,0,10-4.1,10-4.1l-7.8-6.4c0,0-5.5,2.3-13,5.4
					c-13.2,5.4-32.7,13.3-39.7,15.5l-3.3-2.3l42.2-17.3l14.1-5.8l-4.7-3.8c0,0-3.8,1.5-9.4,3.7c-14.9,5.8-42.6,16.7-48.8,18.9
					l-5.4-3.7l54.2-19.3l8.6-3.1l-1.1-4.3l-7.5,2.9l-28.9,11.1l28.9-13.7v-4.6l31.1-13.3h-4.9l-85.2,41.1l-8.8,4.2l26.6,19.2
					c-8.3,3.8-37.6,17.9-60.3,28.8h25.4L769.3,828.9z"/>
				<path class="st42" d="M933,840.2l-8.3-4.9c0,0-9.8,3.8-22.5,8.8c-5,2-10.5,4.1-16.1,6.3h22.1l3.9-1.6L933,840.2z"/>
			</g>
			<path class="st43" d="M800.4,770.4V796l0.8,0.4l10.8,5.1l6.3,3c0,0,11.7,5.5,11.7,5.5c0,0,8.6,4.1,8.6,4.1c0,0,9.8,4.6,9.8,4.6
				c0,0,6.8,3.2,6.8,3.2l9.7,4.6l2.9,1.4c0,0,3.3,1.6,3.3,1.6l9.5,4.5l7,3.3c0,0,9.5,4.5,9.5,4.5l5,2.4l9.9,4.7c0,0,1.8,0.8,3.4,1.6
				H1265v-14.3H935.5L800.4,770.4z"/>
			<polygon class="st44" points="1265,741.2 1265,836.1 935.5,836.1 800.4,770.4 831.5,757 836,755.1 844.3,751.5 868.4,741.2 			
				"/>
			<polygon class="st45" points="870.6,751.5 958.3,751.5 924.2,819 825.3,771 			"/>
			<polygon class="st45" points="1258.9,751.5 1258.9,825.8 1163.1,825.8 1110.8,751.5 			"/>
			<polygon class="st46" points="1104.6,768.1 965.4,768.1 972.7,751.5 1093.8,751.5 			"/>
			<polygon class="st46" points="1128.7,804.9 949.2,804.9 963.4,772.7 1107.6,772.7 			"/>
			<polygon class="st46" points="1149.2,836.1 935.5,836.1 947.2,809.5 1131.7,809.5 			"/>
			<path class="st43" d="M194.1,741.2l-0.2,13.9c0,0-193.9,16.8-193.9,16.8v-15.9L194.1,741.2z"/>
			<polygon class="st47" points="193.9,755.1 836,755.1 868.4,741.2 194.1,741.2 			"/>
			<polygon class="st42" points="732.5,802.4 78.5,785.3 98.5,782.5 746.3,798.2 			"/>
			<polygon class="st42" points="78.5,785.3 110.1,783.4 308.9,755.1 275.7,755.1 			"/>
			<polygon class="st42" points="272.2,755.1 272.1,755.1 0,791.8 0,786.9 85.9,776.1 252.5,755.1 252.6,755.1 			"/>
			<path class="st30" d="M924.2,781.7c0,1.4-11.3,2.5-25.4,2.5c-14,0-25.4-1.1-25.4-2.5c0-1.4,11.3-2.5,25.4-2.5
				C912.8,779.2,924.2,780.3,924.2,781.7z"/>
			<path class="st27" d="M905.4,758.1l-4.6,5.8l0.6,4.7l1.6,13.1h-7.6l1.5-12.5l-0.5-0.6l-4.1-5.2c-0.1-0.1,0.1-0.3,0.2-0.2l4.7,3.7
				l1.5-13c0.1-0.6,0.9-0.6,0.9,0l0.9,7.7l4.7-3.7C905.3,757.8,905.5,758,905.4,758.1z"/>
			<path class="st28" d="M905.4,758.1l-4.6,5.8l0.6,4.7c-0.8,0.1-1.7,0.1-2.6,0.1c-0.8,0-1.6,0-2.4-0.1l-4.1-5.2
				c-0.1-0.1,0.1-0.3,0.2-0.2l4.7,3.7l1.5-13c0.1-0.6,0.9-0.6,0.9,0l0.9,7.7l4.7-3.7C905.3,757.8,905.5,758,905.4,758.1z"/>
			<path class="st30" d="M926.8,736.9c0,15.5-12.5,28-28,28c-9.2,0-17.4-4.5-22.5-11.3c-3.5-4.7-5.5-10.4-5.5-16.7
				c0-15.5,12.5-28,28-28c6.2,0,12,2,16.7,5.5C922.4,719.6,926.8,727.7,926.8,736.9z"/>
			<path class="st29" d="M921,731.1c0,15.5-12.5,28-28,28c-6.2,0-12-2-16.7-5.5c-3.5-4.7-5.5-10.4-5.5-16.7c0-15.5,12.5-28,28-28
				c6.2,0,12,2,16.7,5.5C919,719.1,921,724.9,921,731.1z"/>
			<path class="st30" d="M1230,781.7c0,1.4-11.3,2.5-25.4,2.5c-14,0-25.4-1.1-25.4-2.5c0-1.4,11.3-2.5,25.4-2.5
				C1218.7,779.2,1230,780.3,1230,781.7z"/>
			<path class="st27" d="M1211.2,758.1l-4.6,5.8l0.6,4.7l1.6,13.1h-7.6l1.5-12.5l-0.5-0.6l-4.1-5.2c-0.1-0.1,0.1-0.3,0.2-0.2
				l4.7,3.7l1.5-13c0.1-0.6,0.9-0.6,0.9,0l0.9,7.7l4.7-3.7C1211.2,757.8,1211.3,758,1211.2,758.1z"/>
			<path class="st28" d="M1211.2,758.1l-4.6,5.8l0.6,4.7c-0.8,0.1-1.7,0.1-2.6,0.1c-0.8,0-1.6,0-2.4-0.1l-4.1-5.2
				c-0.1-0.1,0.1-0.3,0.2-0.2l4.7,3.7l1.5-13c0.1-0.6,0.9-0.6,0.9,0l0.9,7.7l4.7-3.7C1211.2,757.8,1211.3,758,1211.2,758.1z"/>
			<path class="st30" d="M1232.6,736.9c0,15.5-12.5,28-28,28c-9.2,0-17.4-4.5-22.5-11.3c-3.5-4.7-5.5-10.4-5.5-16.7
				c0-15.5,12.5-28,28-28c6.2,0,12,2,16.7,5.5C1228.2,719.6,1232.6,727.7,1232.6,736.9z"/>
			<path class="st29" d="M1226.8,731.1c0,15.5-12.5,28-28,28c-6.2,0-12-2-16.7-5.5c-3.5-4.7-5.5-10.4-5.5-16.7c0-15.5,12.5-28,28-28
				c6.2,0,12,2,16.7,5.5C1224.8,719.1,1226.8,724.9,1226.8,731.1z"/>
			<path class="st48" d="M1151.6,58.3c0,0,0.3-11.3-11.3-10.4c0,0,0.5-11.1-12.2-12c-12-0.8-21,5.6-23.2,15.5
				c-0.1-0.1-0.2-0.2-0.3-0.3c-3.3-3.3-8.6-3.3-11.9,0c-2.6,2.6-3.1,6.5-1.6,9.6c0,0,0,0.1,0,0.1c0,0-6.4-0.2-7.7,2.7
				c0,0-15.3-1-43.2,6.3c0,0,110.5,4.3,121.4,1.2C1161.7,71,1160.7,58.3,1151.6,58.3z"/>
			<path class="st48" d="M399.6,265.2c0,0-0.1-4.3,4.3-4c0,0-0.2-4.3,4.7-4.6c4.6-0.3,8.1,2.2,9,6c0,0,0.1-0.1,0.1-0.1
				c1.3-1.3,3.3-1.3,4.6,0c1,1,1.2,2.5,0.6,3.7c0,0,2.5,0,3,1.1c0,0,5.9-0.4,16.7,2.4c0,0-42.6,1.6-46.9,0.5
				C395.7,270,396.1,265.2,399.6,265.2z"/>
			<path class="st48" d="M601.3,74c0,0-0.5-17.7,17.7-16.4c0,0-0.8-17.5,19.2-18.9c18.9-1.3,33.1,8.8,36.5,24.4
				c0.1-0.2,0.3-0.3,0.4-0.5c5.2-5.2,13.5-5.2,18.7,0c4.1,4.1,4.9,10.2,2.5,15.1c0,0.1,0,0.1,0.1,0.2c0,0,10-0.4,12.2,4.2
				c0,0,24.1-1.6,68,9.9c0,0-173.7,6.7-190.9,1.9C585.5,93.9,587,74,601.3,74z"/>
			<path class="st48" d="M142.2,74.9c-1-6.4-7.8-2.7-7.8-9.7c0-5.9-4.8-11.3-14.4-11.8c0.2-0.9,0.4-1.8,0.4-2.7
				c0-5.9-4.8-10.6-10.6-10.6c-5.9,0-10.6,4.8-10.6,10.6c0,1.3,0.3,2.6,0.7,3.8c-1.1,1.3-1.8,3-1.9,4.9c-0.9-0.5-1.9-0.9-3-0.9
				c-3.3,0-5.9,2.7-5.9,5.9c0,0.2,0,0.4,0,0.6c-0.7-0.4-1.4-0.6-2.3-0.6c-2.5,0-4.6,2.1-4.6,4.6c0,0.1,0,0.2,0,0.3
				c-16.3,1.3-18.7,5.4-18.1,5.2c8.6-2.8,8.6-0.4,16.8,2.2c3.7,1.2,10.8,1.7,12.2,1.7c1.4,0,2.6-0.6,3.5-1.5
				c2.1,1.6,5.5,2.7,9.3,2.7c2.4,0,4.6-0.4,6.4-1.1c2.1,1.2,5,2,8.2,2c3.3,0,6.3-0.8,8.4-2.1C134.4,79.8,142.9,79.3,142.2,74.9z"/>
			<path class="st48" d="M961.4,167.2c-0.7-4.2-5.2-1.8-5.2-6.5c0-3.9-3.2-7.5-9.5-7.8c0.2-0.6,0.2-1.2,0.2-1.8c0-3.9-3.2-7-7-7
				c-3.9,0-7.1,3.2-7.1,7c0,0.9,0.2,1.7,0.5,2.5c-0.7,0.9-1.2,2-1.3,3.2c-0.6-0.4-1.3-0.6-2-0.6c-2.2,0-3.9,1.8-3.9,3.9
				c0,0.1,0,0.3,0,0.4c-0.4-0.3-1-0.4-1.5-0.4c-1.7,0-3,1.4-3,3c0,0.1,0,0.1,0,0.2c-10.8,0.9-12.4,3.6-12,3.5
				c5.7-1.9,5.7-0.3,11.1,1.5c2.5,0.8,7.1,1.1,8.1,1.1c0.9,0,1.7-0.4,2.3-1c1.4,1.1,3.6,1.8,6.1,1.8c1.6,0,3-0.3,4.3-0.8
				c1.4,0.8,3.3,1.3,5.4,1.3c2.2,0,4.1-0.5,5.6-1.4C956.3,170.5,961.9,170.2,961.4,167.2z"/>
			<path class="st48" d="M489.1,153c-27.9-7.3-43.2-6.3-43.2-6.3c-1.3-2.9-7.7-2.7-7.7-2.7c0,0,0-0.1,0-0.1c1.5-3.1,1-7-1.6-9.6
				c-3.3-3.3-8.6-3.3-11.9,0c-0.1,0.1-0.2,0.2-0.3,0.3c-2.2-9.9-11.2-16.3-23.2-15.5c-12.7,0.9-12.2,12-12.2,12
				c-1.7-0.1-3.2,0-4.4,0.4c-1.8-0.6-3.8-1.1-6.1-1.2c0.2-0.9,0.4-1.8,0.4-2.7c0-5.9-4.8-10.6-10.6-10.6c-5.9,0-10.6,4.8-10.6,10.6
				c0,1.3,0.3,2.6,0.7,3.8c-1.1,1.3-1.8,3-1.9,4.9c-0.9-0.5-1.9-0.9-3-0.9c-2.5,0-4.6,1.5-5.5,3.6c-0.7-3.3-3-8.5-11-7.9
				c0,0,0.5-11.1-12.2-12c-12-0.8-21,5.6-23.2,15.5c-0.1-0.1-0.2-0.2-0.3-0.3c-3.3-3.3-8.6-3.3-11.9,0c-2.6,2.6-3.1,6.5-1.6,9.6
				c0,0,0,0.1,0,0.1c0,0-6.4-0.2-7.7,2.7c0,0-15.3-1-43.2,6.3c0,0,27.9,1.1,57.1,1.8c4.2,1.6,10.6,2.7,17.8,2.7
				c5.9,0,11.2-0.7,15.2-1.8c2.5,0.5,5.3,0.8,8.3,0.8c2.8,0,5.4-0.3,7.8-0.7c2.3,0.5,5,0.7,7.8,0.7c2.8,0,5.5-0.3,7.9-0.7
				c1.7,0.6,3.6,0.9,5.7,0.9c2.4,0,4.6-0.4,6.4-1.1c2.1,1.2,5,2,8.2,2c3.3,0,6.3-0.8,8.4-2.1c3.6,0.9,8.3,1.1,11.1,0
				C434.5,155.2,489.1,153,489.1,153z"/>
			<path class="st48" d="M1193.3,169.8c-6.8-1.8-10.6-1.5-10.6-1.5c-0.3-0.7-1.9-0.7-1.9-0.7c0.4-0.8,0.2-1.7-0.4-2.4
				c-0.8-0.8-2.1-0.8-2.9,0c0,0,0,0-0.1,0.1c-0.5-2.4-2.7-4-5.7-3.8c-3.1,0.2-3,2.9-3,2.9c-0.4,0-0.8,0-1.1,0.1
				c-0.4-0.2-0.9-0.3-1.5-0.3c0.1-0.2,0.1-0.4,0.1-0.7c0-1.4-1.2-2.6-2.6-2.6c-1.4,0-2.6,1.2-2.6,2.6c0,0.3,0.1,0.6,0.2,0.9
				c-0.3,0.3-0.4,0.7-0.5,1.2c-0.2-0.1-0.5-0.2-0.7-0.2c-0.6,0-1.1,0.4-1.3,0.9c-0.2-0.8-0.7-2.1-2.7-1.9c0,0,0.1-2.7-3-2.9
				c-2.9-0.2-5.1,1.4-5.7,3.8c0,0,0-0.1-0.1-0.1c-0.8-0.8-2.1-0.8-2.9,0c-0.6,0.6-0.8,1.6-0.4,2.3c0,0-1.6,0-1.9,0.7
				c0,0-3.7-0.2-10.6,1.5c0,0,6.8,0.3,13.9,0.4c1,0.4,2.6,0.7,4.3,0.7c1.4,0,2.7-0.2,3.7-0.4c0.6,0.1,1.3,0.2,2,0.2
				c0.7,0,1.3-0.1,1.9-0.2c0.6,0.1,1.2,0.2,1.9,0.2c0.7,0,1.3-0.1,1.9-0.2c0.4,0.1,0.9,0.2,1.4,0.2c0.6,0,1.1-0.1,1.6-0.3
				c0.5,0.3,1.2,0.5,2,0.5c0.8,0,1.5-0.2,2-0.5c0.9,0.2,2,0.3,2.7,0C1179.9,170.3,1193.3,169.8,1193.3,169.8z"/>
			<path class="st9" d="M807.6,266.8l-0.8-1.6l-3-0.4l2.4-0.9l3,0.8v1.2l2.7-1.1l-0.1,1.4l-0.9-0.2l-0.6,0.7l0.5,0.2l0.3,0.4h-0.7
				c0,0-1,0.2-1.1,0.2c-0.1,0-1.3-0.1-1.3-0.1l-1.8,0.1L807.6,266.8z"/>
			<path class="st9" d="M844.8,225l-1.1-2.3l-4.3-0.6l3.5-1.2l4.3,1.1v1.8l3.9-1.7l-0.2,2l-1.3-0.4l-0.8,1l0.7,0.3l0.4,0.6h-1
				c0,0-1.5,0.3-1.6,0.3c-0.1,0-1.9-0.2-1.9-0.2l-2.7,0.2L844.8,225z"/>
			<path class="st9" d="M867.3,249.1l-1.1-2.3l-4.3-0.6l3.5-1.2l4.3,1.1v1.8l3.9-1.7l-0.2,2l-1.3-0.4l-0.8,1l0.7,0.3l0.4,0.6h-1
				c0,0-1.5,0.3-1.6,0.3c-0.1,0-1.9-0.2-1.9-0.2l-2.7,0.2L867.3,249.1z"/>
			<polygon class="st9" points="825.7,265.7 822,269.6 823.2,265.2 822.4,264.4 819.7,264.4 823.3,263.7 826.1,263.1 827.9,263.6 
				827,267.9 			"/>
			<polygon class="st9" points="858.5,235.4 855,239 856.1,234.9 855.3,234.1 852.8,234.1 856.2,233.5 858.8,232.9 860.5,233.4 
				859.7,237.5 			"/>
			<polygon class="st9" points="828.1,218.9 822.8,220.1 823.4,218.9 821.9,218.4 826.9,217.7 826.6,212.2 831.7,216.2 831.2,217.3 
				833.2,217.8 833.7,219.1 832.8,218.7 835.3,220.6 837.9,223.2 			"/>
			<polygon class="st9" points="843,263.4 838.6,264.4 839.1,263.4 837.8,263 842,262.4 841.7,257.8 846,261.1 845.5,262 
				847.2,262.5 847.6,263.5 846.8,263.3 848.9,264.8 851.1,267 			"/>
			<polygon class="st9" points="864.6,251.4 865,255.1 860.4,259 861.1,259.4 861.2,260.2 860,259.9 858.4,260 857.4,259.2 
				854.9,258.6 857.4,258.5 854,253.2 858,256.4 858.9,258.2 861.3,255.5 			"/>
			<path class="st9" d="M143.9,212.9l-0.5-1.1l-2.1-0.3l1.7-0.6l2.1,0.5v0.8l1.9-0.8l-0.1,0.9l-0.6-0.2l-0.4,0.5l0.3,0.1l0.2,0.3
				h-0.5c0,0-0.7,0.1-0.8,0.1s-0.9-0.1-0.9-0.1l-1.3,0.1L143.9,212.9z"/>
			<path class="st9" d="M169.9,183.8l-0.8-1.6l-3-0.4l2.4-0.9l3,0.8v1.2l2.7-1.1l-0.1,1.4l-0.9-0.3l-0.6,0.7l0.5,0.2l0.3,0.4h-0.7
				c0,0-1,0.2-1.1,0.2c-0.1,0-1.3-0.1-1.3-0.1l-1.8,0.1L169.9,183.8z"/>
			<path class="st9" d="M185.5,200.6l-0.8-1.6l-3-0.4l2.4-0.9l3,0.8v1.2l2.7-1.1l-0.1,1.4l-0.9-0.3l-0.6,0.7l0.5,0.2l0.3,0.4h-0.7
				c0,0-1,0.2-1.1,0.2c-0.1,0-1.3-0.1-1.3-0.1l-1.8,0.1L185.5,200.6z"/>
			<polygon class="st9" points="156.5,212.1 154,214.8 154.8,211.8 154.2,211.2 152.4,211.2 154.9,210.7 156.8,210.3 158,210.7 
				157.4,213.7 			"/>
			<polygon class="st9" points="179.3,191 176.9,193.6 177.7,190.7 177.2,190.2 175.4,190.2 177.7,189.7 179.6,189.3 180.7,189.6 
				180.2,192.5 			"/>
			<polygon class="st9" points="158.2,179.5 154.5,180.4 155,179.5 153.9,179.2 157.4,178.7 157.1,174.9 160.7,177.7 160.4,178.4 
				161.8,178.8 162.1,179.7 161.5,179.4 163.2,180.8 165,182.5 			"/>
			<polygon class="st9" points="168.5,210.5 165.5,211.2 165.8,210.5 164.9,210.2 167.9,209.8 167.6,206.6 170.6,208.9 170.3,209.6 
				171.5,209.9 171.8,210.6 171.2,210.4 172.7,211.5 174.2,213 			"/>
			<polygon class="st9" points="183.6,202.2 183.9,204.7 180.7,207.5 181.2,207.7 181.2,208.3 180.4,208.1 179.3,208.1 178.6,207.6 
				176.9,207.2 178.6,207.1 176.2,203.4 179,205.6 179.7,206.9 181.3,205 			"/>
		</g>
	</g>
</g>
</svg>
